<?xml version="1.0" encoding="iso-8859-1"?>
<!-- Uploaded to: SVG Repo, www.svgrepo.com, Generator: SVG Repo Mixer Tools -->
<svg height="800px" width="800px" version="1.1" id="Layer_1" xmlns="http://www.w3.org/2000/svg" xmlns:xlink="http://www.w3.org/1999/xlink" 
	 viewBox="0 0 512 512" xml:space="preserve">
<path style="fill:#95673F;" d="M338.254,501.649c-2.671,6.233-8.682,10.351-15.471,10.351H189.217c-6.79,0-12.8-4.118-15.471-10.351
	c-2.56-6.233-1.113-13.357,3.673-18.143c18.365-18.365,28.494-42.852,28.494-68.786v-80.807c0-9.238,7.457-16.696,16.696-16.696
	l66.783,0.223c9.238,0,16.696,7.457,16.696,16.696v80.584c0,25.934,10.129,50.421,28.494,68.786
	C339.367,488.292,340.814,495.416,338.254,501.649z"/>
<path style="fill:#875334;" d="M338.254,501.649c-2.671,6.233-8.682,10.351-15.471,10.351H256V317.329l33.391,0.111
	c9.238,0,16.696,7.457,16.696,16.696v80.584c0,25.934,10.129,50.421,28.494,68.786C339.367,488.292,340.814,495.416,338.254,501.649
	z"/>
<path style="fill:#9DCA40;" d="M456.236,162.838c-1.224-29.384-17.809-58.212-44.522-77.134
	c-19.59-13.802-39.736-20.035-61.329-18.699C336.584,27.381,299.075,0,256,0s-80.584,27.381-94.386,67.005
	c-22.483-1.336-42.852,5.677-61.329,18.699c-26.713,18.922-43.297,47.75-44.522,77.134c-1.002,25.043,7.457,49.308,23.485,68.452
	c-8.904,22.483-9.238,46.414-0.89,69.675c11.687,32.39,39.29,56.877,72.014,63.89c34.727,7.569,70.01-3.005,94.275-28.16
	c3.117-3.228,7.235-4.675,11.353-4.564c3.45,0.11,6.901,1.446,9.683,4.007c28.271,27.047,62.664,35.951,96.056,28.716
	c32.612-7.012,60.216-31.499,71.903-63.89c8.458-23.485,7.68-47.972-0.779-69.899C448.89,212.035,457.238,187.77,456.236,162.838z"
	/>
<path style="fill:#8EB043;" d="M432.863,231.068c8.459,21.927,9.238,46.414,0.779,69.899c-11.687,32.39-39.29,56.877-71.903,63.89
	c-33.391,7.235-67.784-1.67-96.056-28.717c-2.783-2.56-6.233-3.896-9.683-4.007V0c43.075,0,80.584,27.381,94.386,67.005
	c21.593-1.336,41.739,4.897,61.329,18.699c26.713,18.922,43.297,47.75,44.522,77.134C457.238,187.77,448.89,212.035,432.863,231.068
	z"/>
<path style="fill:#6E6057;" d="M495.304,512H16.696C7.479,512,0,504.527,0,495.304s7.479-16.696,16.696-16.696h478.609
	c9.217,0,16.696,7.473,16.696,16.696S504.521,512,495.304,512z"/>
<path style="fill:#615349;" d="M495.304,478.609H256V512h239.304c9.217,0,16.696-7.473,16.696-16.696
	S504.521,478.609,495.304,478.609z"/>
</svg>